<?xml version="1.0" encoding="utf-8"?>
<!-- Generator: Adobe Illustrator 15.0.0, SVG Export Plug-In . SVG Version: 6.00 Build 0)  -->
<!DOCTYPE svg PUBLIC "-//W3C//DTD SVG 1.1//EN" "http://www.w3.org/Graphics/SVG/1.1/DTD/svg11.dtd">
<svg version="1.1" id="Layer_1" xmlns="http://www.w3.org/2000/svg" xmlns:xlink="http://www.w3.org/1999/xlink" x="0px" y="0px"
	 width="170.5px" height="31.478px" viewBox="0 0 170.5 31.478" enable-background="new 0 0 170.5 31.478" xml:space="preserve">
<g>
	<path fill="#0067B1" d="M169.092,17.413H157.35c-0.012,0.309-0.018,0.566-0.018,0.773c0,1.249,0.389,2.18,1.17,2.789
		c0.678,0.527,1.461,0.791,2.35,0.791c1.799,0,2.871-0.869,3.236-2.611l4.875,0.324c-0.529,1.49-1.227,2.65-2.096,3.48
		c-1.555,1.5-3.631,2.252-6.232,2.252c-2.754,0-4.967-0.83-6.625-2.494c-1.566-1.568-2.35-3.551-2.35-5.961
		c0-2.386,0.686-4.363,2.059-5.927c1.678-1.904,3.928-2.856,6.756-2.856c2.072,0,3.871,0.554,5.4,1.658
		c1.121,0.817,1.922,1.826,2.41,3.014C168.772,13.833,169.043,15.419,169.092,17.413L169.092,17.413z M157.333,14.572h6.484
		c-0.117-1.204-0.42-2.072-0.9-2.604s-1.221-0.796-2.207-0.796C158.737,11.172,157.61,12.304,157.333,14.572L157.333,14.572z"/>
	<path fill="#0067B1" d="M144.901,24.88h-5.059V8.304h4.779v3.087c0.711-2.297,3.064-3.445,4.896-3.445
		c0.258,0,0.568,0.017,0.945,0.045v4.846c-0.246-0.011-0.412-0.017-0.508-0.017c-2.646,0-5.055,1.771-5.055,5.316V24.88
		L144.901,24.88z"/>
	<path fill="#0067B1" d="M136.577,24.88h-5.08c-0.16-0.768-0.244-1.479-0.244-2.133c0-0.068,0-0.219,0-0.46
		c-0.855,1.108-1.691,1.872-2.51,2.302c-0.824,0.426-1.869,0.639-3.143,0.639c-1.799,0-3.189-0.477-4.182-1.428
		c-0.914-0.852-1.369-1.934-1.369-3.232c0-1.34,0.455-2.487,1.369-3.451c1.021-1.081,2.879-1.815,5.562-2.196
		c0.889-0.123,2.234-0.252,4.045-0.397v-0.953c0-1.596-0.867-2.397-2.594-2.397c-0.873,0-1.572,0.208-2.098,0.616
		c-0.525,0.409-0.842,1.009-0.943,1.781l-4.816-0.426c0.197-0.896,0.449-1.602,0.742-2.117c0.299-0.516,0.734-0.975,1.309-1.378
		c1.559-1.115,3.656-1.675,6.279-1.675c2.479,0,4.379,0.498,5.711,1.495c0.652,0.482,1.088,1.042,1.303,1.681
		s0.322,1.687,0.322,3.126v7.502c0,0.964,0.012,1.585,0.043,1.866C136.313,23.923,136.409,24.331,136.577,24.88L136.577,24.88z
		 M131.026,16.937c-1.357,0.151-2.402,0.348-3.148,0.577c-1.555,0.481-2.332,1.328-2.332,2.544c0,0.633,0.211,1.148,0.623,1.541
		c0.412,0.396,0.949,0.594,1.6,0.594c0.867,0,1.602-0.32,2.205-0.953c0.699-0.711,1.053-1.641,1.053-2.789V16.937L131.026,16.937z"
		/>
	<path fill="#0067B1" d="M117.35,8.304V24.88h-4.994v-2.822c-1.025,2.102-2.846,3.154-5.465,3.154c-1.914,0-3.303-0.566-4.16-1.691
		c-0.383-0.516-0.648-1.07-0.785-1.665c-0.141-0.599-0.209-1.507-0.209-2.717V8.304h5.229v10.835c0,1.479,0.68,2.218,2.045,2.218
		c1.209,0,2.086-0.504,2.641-1.512c0.148-0.264,0.236-0.499,0.268-0.717c0.029-0.213,0.043-0.717,0.043-1.52V8.304H117.35
		L117.35,8.304z"/>
	<path fill="#0067B1" d="M98.79,8.304l0.115,22.174h-6.141v-7.322c-0.688,0.801-1.332,1.344-1.924,1.637
		c-0.598,0.291-1.375,0.436-2.33,0.436c-2.402,0-4.194-0.912-5.372-2.738c-0.98-1.535-1.47-3.496-1.47-5.883
		c0-2.886,0.741-5.109,2.223-6.661c1.249-1.316,2.933-1.972,5.06-1.972c1.492,0,4.072,0.554,4.965,1.907l0.254-1.577H98.79
		L98.79,8.304z M92.764,18.052v-3.328c0-1.098-0.264-1.949-0.789-2.565c-0.502-0.577-1.141-0.868-1.924-0.868
		c-0.441,0-0.873,0.117-1.285,0.347c-0.412,0.23-0.729,0.527-0.938,0.902c-0.441,0.784-0.662,2.157-0.662,4.106
		c0,1.642,0.137,2.824,0.418,3.547c0.191,0.47,0.496,0.856,0.926,1.164c0.436,0.309,0.896,0.46,1.387,0.46
		c0.812,0,1.512-0.376,2.078-1.132C92.5,19.99,92.764,19.116,92.764,18.052L92.764,18.052z"/>
	<path fill="#0067B1" d="M78.755,10.28l-2.784,2.323c-1.108-1.222-6.443-2.436-7.113-0.099c-0.363,1.264,2.391,1.469,3.113,1.558
		c2.734,0.331,4.592,0.745,5.574,1.25c0.752,0.392,1.336,0.952,1.746,1.675c0.416,0.723,0.621,1.541,0.621,2.459
		c0,1.709-0.705,3.439-2.113,4.484c-1.468,1.088-3.517,1.641-6.152,1.641c-2.176,0-5.953-0.75-7.666-2.178l2.049-3.427
		c1.077,0.687,9.075,3.429,9.27,0.337c0.047-0.743-0.789-1.183-2.162-1.328c-1.119-0.117-2.324-0.318-3.622-0.582
		c-1.299-0.27-2.169-0.498-2.604-0.684c-0.876-0.393-1.56-0.953-2.057-1.675c-0.546-0.79-0.82-1.664-0.82-2.628
		c0-1.619,0.681-3.28,2.039-4.265c1.4-1.016,3.318-1.529,5.753-1.529C73.937,7.613,77.062,8.184,78.755,10.28L78.755,10.28z"/>
	<path fill="#0067B1" d="M56.922,24.88h-5.061V8.304h4.78v3.087c0.711-2.297,3.064-3.445,4.898-3.445
		c0.257,0,0.567,0.017,0.944,0.045v4.846c-0.245-0.011-0.412-0.017-0.508-0.017c-2.646,0-5.053,1.771-5.053,5.316V24.88
		L56.922,24.88z"/>
	<path fill="#0067B1" d="M48.28,8.304V24.88h-5.021v-2.822c-1.03,2.102-2.861,3.154-5.493,3.154c-1.924,0-3.32-0.566-4.183-1.691
		c-0.385-0.516-0.652-1.07-0.788-1.665c-0.143-0.599-0.211-1.507-0.211-2.717V8.304h5.257v10.835c0,1.479,0.683,2.218,2.055,2.218
		c1.216,0,2.098-0.504,2.656-1.512c0.149-0.264,0.236-0.499,0.267-0.717c0.031-0.213,0.043-0.717,0.043-1.52V8.304H48.28
		L48.28,8.304z"/>
	<path fill="#0067B1" d="M21.693,7.974c2.677,0,4.774,0.823,6.304,2.465c1.506,1.63,2.258,3.703,2.258,6.218
		c0,2.409-0.752,4.415-2.258,6.013c-1.601,1.697-3.705,2.543-6.321,2.543c-2.575,0-4.63-0.84-6.16-2.527
		c-1.458-1.602-2.187-3.675-2.187-6.224c0-2.482,0.752-4.51,2.258-6.073c0.794-0.835,1.673-1.439,2.641-1.826
		C19.196,8.181,20.355,7.984,21.693,7.974L21.693,7.974z M21.819,11.172c-1.052,0-1.811,0.393-2.283,1.177
		c-0.472,0.778-0.711,2.056-0.711,3.815c0,1.81,0.173,3.204,0.526,4.19c0.185,0.504,0.502,0.907,0.944,1.204
		c0.442,0.303,0.944,0.454,1.506,0.454c1.027,0,1.774-0.42,2.247-1.266c0.472-0.841,0.711-2.174,0.711-3.99
		c0-2.027-0.221-3.456-0.657-4.296C23.665,11.626,22.906,11.194,21.819,11.172L21.819,11.172z"/>
	<path fill="#0067B1" d="M8.851,11.799V24.88H3.554V11.799H1.409V7.895h2.145C3.566,6.46,3.623,5.449,3.729,4.87
		c0.1-0.586,0.325-1.119,0.669-1.602c1.051-1.51,2.958-2.268,5.717-2.268c0.707,0,1.557,0.068,2.545,0.2V5.07
		c-0.813-0.057-1.433-0.086-1.852-0.086c-0.756,0-1.27,0.161-1.544,0.482C8.988,5.782,8.851,6.38,8.851,7.258v0.637h3.371v3.904
		H8.851L8.851,11.799z"/>
</g>
</svg>
