<?xml version="1.0" encoding="utf-8"?>
<!-- Generator: Adobe Illustrator 15.0.0, SVG Export Plug-In . SVG Version: 6.00 Build 0)  -->
<!DOCTYPE svg PUBLIC "-//W3C//DTD SVG 1.1//EN" "http://www.w3.org/Graphics/SVG/1.1/DTD/svg11.dtd">
<svg version="1.1" id="Layer_1" xmlns="http://www.w3.org/2000/svg" xmlns:xlink="http://www.w3.org/1999/xlink" x="0px" y="0px"
	 width="706px" height="144px" viewBox="0 0 706 144" enable-background="new 0 0 706 144" xml:space="preserve">
<g>
	<path fill="#FFFFFF" d="M334.466,24.796c0.662,0.023,1.168,0.081,1.537,0.188c0.664,0.178,0.93,0.494,0.93,0.999
		c0,0.593,0,0.892-0.65,1.784c-23.66,34.304-47.533,68.863-72.336,103.162l38.25-0.252c17.131,0,22.352-2.836,25.775-7.305
		c1.477-1.939,2.945-5.969,3.264-8.066c0.33-1.482,1.479-2.373,1.479-2.373l1.631,0.027c0,0-2.615,16.822-3.596,20.547
		c-0.98,3.582-1.207,3.986-4.955,3.986c-27.254,0-49.656,0.01-78.211,0.01c-1.957,0-2.516-1.01-2.516-2.059
		c0-0.738,0.324-1.488,2.279-4.164c17.982-24.82,38.236-49.638,56.742-74.51c5.619-7.938,11.291-15.873,17.021-23.808
		c0.482-0.708,0.967-1.41,1.441-2.118l-40.574,0.378c-4.879,0.043-8.764,0.313-11.941,0.772c-2.846,0.477-5.375,1.142-7.271,2.08
		c-5.848,2.889-9.193,11.867-9.193,11.867l-1.773,2.69c0,0-0.986-0.729-0.998-1.921c-0.016-1.801,2.318-15.383,3.092-19.861
		c0.307-2.1,1.607-2.852,1.607-2.852s1.104,0.576,5.512,0.686c0.047,0.004,0.086,0.004,0.133,0.008
		c10.07-0.068,19.607-0.033,29.096,0.018h0.057L334.466,24.796z"/>
	<path fill="#FFFFFF" d="M226.854,134.39c-3.156-0.898-7.479-3.285-12.816-15.928l-0.005,0.016l-40.17-97.182
		c-0.562-1.066-1.174,0.656-1.174,0.656l-37.617,98.436c-2.8,7.783-5.911,13.684-13.068,14.627
		c-1.243,0.146-5.888,0.336-5.888,0.336l-0.023,0.896c0,0,0.932,1.254,2.953,1.254h17.806h11.906c1.404,0,2.336-1.254,2.336-1.254
		l-0.005-0.658l-3.107-0.264c-2.643,0-5.911-1.41-5.911-4.521c0-2.795,0.779-6.516,2.173-10.4l10.029-28.961l35.198,0.156
		l14.98,39.205c0.934,2.502,0,3.906-0.929,4.211c-0.628,0.146-1.093,0.461-1.093,1.09c0,0.939,1.654,1.406,4.618,1.396
		c10.643-0.023,22.141,0,24.472,0c1.714,0,3.113-1.254,3.113-1.254l-0.171-0.74C234.462,135.507,229.188,135.161,226.854,134.39
		 M155.828,86.013l15.737-45.288l15.962,45.288H155.828z"/>
	<path fill="#FFFFFF" d="M454.065,134.39c-3.162-0.898-7.482-3.285-12.816-15.928l-0.004,0.016l-40.172-97.182
		c-0.559-1.066-1.172,0.656-1.172,0.656l-37.617,98.436c-2.801,7.783-5.914,13.684-13.068,14.627
		c-1.242,0.146-5.889,0.336-5.889,0.336l-0.025,0.896c0,0,0.932,1.254,2.957,1.254h17.805h11.908c1.402,0,2.33-1.254,2.33-1.254
		v-0.658l-3.111-0.264c-2.639,0-5.908-1.41-5.908-4.521c0-2.795,0.779-6.516,2.174-10.4l10.025-28.961l35.197,0.156l14.979,39.205
		c0.938,2.502,0,3.906-0.926,4.211c-0.631,0.146-1.09,0.461-1.09,1.09c0,0.939,1.656,1.406,4.613,1.396
		c10.645-0.023,22.143,0,24.475,0c1.715,0,3.117-1.254,3.117-1.254l-0.172-0.74C461.675,135.507,456.397,135.161,454.065,134.39
		 M383.036,86.013l15.74-45.288l15.961,45.288H383.036z"/>
	<path fill="#FFFFFF" d="M7.106,137.468c-1.66,0-2.452-1.623-2.452-1.623l0.164-0.691c0,0,4.215-0.51,5.575-0.814
		c3.021-0.607,5.146-4.109,5.75-8.484c0.752-6.336,0.752-18.256,0.752-32.758V66.522c0-23.534,0-43.927-0.304-48.764
		c-0.295-5.139-1.504-7.555-6.483-8.604C8.901,8.854,4.978,8.708,4.978,8.708L3.765,7.802l0.326-1.328
		c0,0,19.293,0.572,20.049,0.572c0.752,0,18.494-0.572,18.494-0.572l0.224,1.328l-1.21,0.906c0,0-3.162,0.146-4.977,0.447
		c-4.384,0.744-5.594,3.323-5.893,8.604c-0.299,4.837-0.299,25.229-0.299,48.764v26.879c0,22.199,0.782,30.545,3.319,33.434
		c2.659,3.033,19.579,3.941,36.843,3.957h5.65c17.132,0,21.129-2.824,24.557-7.285c1.473-1.932,2.939-5.957,3.263-8.049
		c0.327-1.484,1.479-2.367,1.479-2.367l1.631,0.025c0,0-2.618,16.789-3.599,20.506c-0.979,3.578-1.14,3.877-4.889,3.877
		L7.106,137.468z"/>
	<path fill="#FFFFFF" d="M580.558,134.993c-3.732-0.6-10.145-2.244-18.201-10.773c-8.654-9.254-18.797-22.551-31.027-38.249
		c13.42-12.399,18.049-23.462,18.049-34.524c0-10.305-6.562-17.641-10.297-20.324c-7.904-5.672-22.873-6.566-32.277-6.566
		c-4.621,0-15.955,0.438-17.607,0.438c-0.744,0-19.232-0.451-19.232-0.451v1.199c0,0,0.6,0.902,1.184,0.902
		c1.342,0,3.885,0.149,5.08,0.454c4.92,1.04,6.109,3.434,6.418,8.513c0.297,4.779,0.297,8.965,0.297,32.285v26.291
		c0,14.355,0,26.145-0.748,32.438c-0.602,4.328-1.346,7.615-4.334,8.209c-1.338,0.305-5.492,0.625-5.492,0.625l-0.17,0.879
		c0,0,0.748,1.189,2.391,1.189c4.463,0,13.752-0.012,13.9-0.012c0.746,0,10.262,0.012,18.463,0.012c1.643,0,2.383-1.189,2.383-1.189
		l-0.361-0.879c0,0-5.447-0.32-7.537-0.625c-4.48-0.594-5.375-3.881-5.822-8.209c-0.74-6.293-0.74-18.082-0.74-32.438v-3.58
		c0-0.747,0.297-1.199,1.041-1.199l23.326,0.297c0.895,0,1.346,0.301,1.945,0.902c2.969,3.885,9.99,13.887,16.254,22.117
		c8.498,11.207,13.725,18.533,20.143,21.965c3.877,2.098,7.6,2.838,15.957,2.838h10.598c2.684,0,3.578-1.189,3.578-1.189
		l-0.732-0.967C586.983,135.37,583.386,135.438,580.558,134.993 M527.739,82.229c-3.432,2.389-12.582,2.84-16.154,2.84
		c-6.564,0-13.432-1.037-15.67-2.395c-0.744-0.445-1.041-1.033-1.041-1.777V32.021c0-0.899,0.443-1.49,1.188-1.798
		c1.5-0.441,5.529-0.889,9.998-0.889c15.961,0,30.783,11.208,30.783,29.883C536.843,70.581,532.968,78.644,527.739,82.229"/>
	<path fill="#FFFFFF" d="M642.716,137.456c18.158,0,31.611-4.078,44.809-17.576c1.549-1.584,2.943-3.529,4.334-5.611
		c0,0,3.857-6.385,5.281-10.004c13.879-35.206-4.535-59.471-8.771-63.544c-14.574-13.989-30.418-15.653-45.732-16l0.039-0.013
		c-0.736,0-45-0.208-45-0.208v1.34c0,0,0.453,0.895,1.047,0.895c0.533,0,0.92,0.029,2.104,0.076c0.016,0,0.033,0.005,0.051,0.005
		c0.043,0,0.092,0.003,0.143,0.003c1.709,0.072,3.572,0.198,4.258,0.372c0.488,0.104,0.906,0.23,1.326,0.365
		c0.123,0.035,0.258,0.066,0.371,0.105c0.461,0.167,0.879,0.352,1.266,0.562c0.01,0.008,0.029,0.015,0.051,0.022
		c0.371,0.211,0.693,0.444,0.996,0.705c0.018,0.021,0.045,0.034,0.068,0.052c0.223,0.206,0.406,0.439,0.592,0.678
		c0.078,0.095,0.178,0.179,0.246,0.288c0.066,0.102,0.117,0.222,0.17,0.327c0.766,1.33,1.096,3.089,1.229,5.454
		c0.273,4.767,0.273,8.937,0.273,32.171v7.967v10.193v7.967c0,23.238,0,27.406-0.273,32.172c-0.133,2.367-0.463,4.125-1.229,5.451
		c-0.053,0.109-0.104,0.232-0.17,0.332c-0.068,0.104-0.168,0.188-0.246,0.287c-0.186,0.236-0.369,0.471-0.592,0.674
		c-0.023,0.02-0.051,0.033-0.068,0.055c-0.303,0.258-0.625,0.492-0.996,0.707c-0.021,0.006-0.041,0.012-0.051,0.021
		c-0.387,0.211-0.805,0.393-1.266,0.562c-0.113,0.041-0.248,0.066-0.371,0.105c-0.42,0.135-0.838,0.258-1.326,0.365
		c-0.686,0.174-2.549,0.299-4.258,0.373h-0.143c-0.018,0-0.035,0.004-0.051,0.01c-1.184,0.047-1.205,0.07-1.738,0.07
		c-0.592,0-0.863,0.896-0.863,0.896v1.338L642.716,137.456z M646.255,132.282c-6.875,0.469-16.191-0.279-18.209-0.551l-3.555-1.182
		c-0.568-0.527-0.795-1.229-0.795-2.389c-0.143-5.072-0.143-20.262-0.143-31.721V86.081v-2.086v-6.02v-2.088V65.528
		c0-11.455,0-26.649,0.143-31.717c0-1.162,0.227-1.862,0.795-2.391l3.555-1.182c2.018-0.268,6.803-0.554,6.875-0.554
		c3.852-0.146,6.65-0.161,10.895,0.312c5.631,0.626,9.508,1.878,9.508,1.878c3.945,1.254,5.699,2.115,8.861,3.937
		c15.268,8.827,25.205,22.438,25.352,45.761c0.127,20.428-5.938,35.74-20.184,44.135
		C662.495,129.749,656.39,131.587,646.255,132.282"/>
</g>
</svg>
